<svg version="1.2" xmlns="http://www.w3.org/2000/svg" viewBox="0 0 1500 1500" width="1500" height="1500">
	<title>facebook</title>
	<style>
		.s0 { fill: #1877f2 } 
		.s1 { fill: #ffffff } 
	</style>
	<path id="Layer" class="s0" d="m1432.3 749.7c0-377.1-305.6-682.7-682.6-682.7-377.1 0-682.7 305.6-682.7 682.7 0 340.7 249.6 623.1 576 674.3v-477h-173.3v-197.3h173.3v-150.4c0-171.1 101.9-265.6 257.9-265.6 74.6 0 152.8 13.3 152.8 13.3v168h-86.1c-84.8 0-111.3 52.6-111.3 106.6v128.1h189.4l-30.3 197.3h-159.1v477c326.4-51.2 576-333.6 576-674.3z"/>
	<path id="Layer" class="s1" d="m1015.4 947l30.3-197.3h-189.4v-128.1c0-54 26.5-106.6 111.3-106.6h86.1v-168c0 0-78.2-13.3-152.8-13.3-156 0-257.9 94.5-257.9 265.6v150.4h-173.3v197.3h173.3v477q13.2 2.1 26.5 3.7 13.3 1.5 26.7 2.6 13.3 1 26.7 1.5 13.4 0.5 26.8 0.5c36.3 0 71.9-2.8 106.6-8.3v-477z"/>
</svg>